<?xml version="1.0" encoding="UTF-8" standalone="no"?>
<!-- Created with Inkscape (http://www.inkscape.org/) -->

<svg
   xmlns:dc="http://purl.org/dc/elements/1.1/"
   xmlns:cc="http://creativecommons.org/ns#"
   xmlns:rdf="http://www.w3.org/1999/02/22-rdf-syntax-ns#"
   xmlns:svg="http://www.w3.org/2000/svg"
   xmlns="http://www.w3.org/2000/svg"
   xmlns:sodipodi="http://sodipodi.sourceforge.net/DTD/sodipodi-0.dtd"
   xmlns:inkscape="http://www.inkscape.org/namespaces/inkscape"
   id="svg3039"
   version="1.1"
   inkscape:version="0.48.5 r10040"
   width="628.76379"
   height="126.09515"
   sodipodi:docname="storytime.svg">
  <metadata
     id="metadata3045">
    <rdf:RDF>
      <cc:Work
         rdf:about="">
        <dc:format>image/svg+xml</dc:format>
        <dc:type
           rdf:resource="http://purl.org/dc/dcmitype/StillImage" />
        <dc:title></dc:title>
      </cc:Work>
    </rdf:RDF>
  </metadata>
  <defs
     id="defs3043" />
  <sodipodi:namedview
     pagecolor="#ffffff"
     bordercolor="#666666"
     borderopacity="1"
     objecttolerance="10"
     gridtolerance="10"
     guidetolerance="10"
     inkscape:pageopacity="0"
     inkscape:pageshadow="2"
     inkscape:window-width="1201"
     inkscape:window-height="725"
     id="namedview3041"
     showgrid="false"
     inkscape:zoom="0.89648623"
     inkscape:cx="298.56672"
     inkscape:cy="123.63557"
     inkscape:window-x="98"
     inkscape:window-y="38"
     inkscape:window-maximized="0"
     inkscape:current-layer="svg3039"
     fit-margin-top="0"
     fit-margin-left="0"
     fit-margin-right="0"
     fit-margin-bottom="0" />
  <path
     style="fill:#000000"
     d="m 278.96377,124.89516 c -0.66,-0.66 -1.2,-1.92 -1.2,-2.8 0,-2.76837 2.23718,-4 7.26574,-4 2.67616,0 5.74018,-0.46798 6.80893,-1.03996 1.06876,-0.57199 3.73086,-4.59545 5.91578,-8.94105 l 3.97258,-7.90107 -10.17671,-26.07987 -10.17672,-26.07987 -19.0548,0.27091 -19.0548,0.27091 -0.26586,28.41664 c -0.17706,18.925301 -0.63546,28.862 -1.37244,29.75 -1.3768,1.65894 -5.06234,1.73272 -6.6617,0.13336 -0.89156,-0.89156 -1.2,-11.044439 -1.2,-39.5 l 0,-38.3 11.25,-0.16695 c 35.65231,-0.52909 36.94337,-0.4728 38.237,1.66695 0.66502,1.1 6.08994,14.73633 12.05537,30.30296 9.70513,25.32523 10.96816,28.06066 12.00501,26 0.63731,-1.26663 5.78742,-14.45296 11.44467,-29.30296 5.65726,-14.85 10.66325,-27.41737 11.12443,-27.92749 0.46587,-0.51532 7.73664,-0.81672 16.36101,-0.67824 l 15.52251,0.24925 0,-9.87176 c 0,-10.3801602 0.69364,-12.2717602 4.5,-12.2717602 3.8012,0 4.5,1.89451 4.5,12.2000002 l 0,9.8 9.5,0 9.5,0 0,4.36916 c 0,4.27194 -0.0834,4.38295 -3.75,4.98899 -2.0625,0.34091 -6.3375,0.62479 -9.5,0.63084 l -5.75,0.011 0,28.56574 c 0,17.77874 0.39091,29.296161 1.03518,30.500001 0.96101,1.79566 2.25084,1.934259 18,1.934259 l 16.96482,0 0,-34.8 c 0,-36.59023 0.0738,-37.2 4.5,-37.2 4.42624,0 4.5,0.60977 4.5,37.2 l 0,34.8 13,0 13,0 0,-33.92857 c 0,-29.51082 0.20461,-34.13318 1.57143,-35.5 3.29256,-3.29256 7.42857,-0.56371 7.42857,4.90121 l 0,3.32978 3.0213,-2.82231 c 6.86455,-6.41245 18.18497,-9.34845 26.9787,-6.99703 3.16125,0.84531 5.88569,2.63361 9.15777,6.0111 l 4.65776,4.8078 2.84224,-2.99424 c 1.56322,-1.64683 5.09223,-4.16539 7.84223,-5.5968 6.78354,-3.53091 18.93244,-3.79708 25,-0.5477 8.83718,4.73259 11.5,10.24455 11.5,23.80464 l 0,9.53212 11.3915,0 11.3915,0 1.57207,-6.96136 c 3.88985,-17.22477 13.45149,-27.21292 27.45172,-28.67623 16.01509,-1.67391 29.30274,9.27316 33.65193,27.72422 0.83144,3.52735 1.51837,8.32587 1.5265,10.66337 l 0.0148,4.25 -27.62883,0 -27.62883,0 0.64531,5.25 c 0.94748,7.70828 6.20321,17.52806 11.29203,21.097951 4.9058,3.441509 12.16374,4.518889 17.83445,2.647389 4.67589,-1.543179 11.04236,-7.20566 13.4852,-11.99402 2.4657,-4.83319 4.45849,-6.35422 7.36819,-5.62393 3.46922,0.87072 3.78293,3.928 0.98018,9.55239 -2.92673,5.873181 -8.84797,11.48517 -15.2253,14.43012 -6.60924,3.05204 -19.86405,2.96864 -25.84584,-0.16262 -9.37587,-4.90795 -16.34007,-15.69193 -18.48224,-28.61948 l -1.08997,-6.5778 -11.32962,0 -11.32961,0 -0.27256,18.2268 -0.27256,18.22679 -2.69025,0.94524 c -5.70862,2.00575 -5.80959,1.45374 -5.8113,-31.77127 -10e-4,-26.67954 -0.20166,-30.52813 -1.75,-33.62756 -4.49559,-8.99916 -19.0532,-9.36166 -28.08377,-0.69932 -6.16554,5.91414 -6.16468,5.90902 -6.16468,36.6711 l 0,28.0711 -2.57766,1.17446 c -1.83187,0.83466 -3.06151,0.86963 -4.25,0.1209 -1.48728,-0.93697 -1.72767,-4.53266 -2.17234,-32.49254 -0.55702,-35.02427 -0.66074,-35.55252 -7.54566,-38.42923 -8.07737,-3.37494 -16.99878,-1.1483 -24.20434,6.04102 l -5.25,5.23816 0,29.65218 c 0,16.308691 -0.3375,29.66745 -0.75,29.68612 -0.4125,0.0187 -18.26307,0.14657 -39.66793,0.28423 -43.3206,0.2786 -43.17305,0.29873 -46.7548,-6.37984 -1.65188,-3.080089 -1.82727,-6.250179 -1.82727,-33.026 l 0,-29.61887 -7.65088,-0.64673 c -7.60244,-0.64265 -18.34867,-0.87499 -18.34961,-0.39674 -0.003,1.58386 -30.68591,75.33906 -32.73777,78.69498 -3.62792,5.93367 -9.58231,9.05502 -17.27363,9.05502 -3.07346,0 -6.12811,-0.54 -6.78811,-1.2 z m 340.38179,-65.55 c -1.17212,-6.85939 -6.69726,-16.39606 -11.41793,-19.70792 -3.80439,-2.66902 -5.17344,-3.04208 -11.16386,-3.04208 -5.99042,0 -7.35947,0.37306 -11.16386,3.04208 -4.72067,3.31186 -10.24581,12.84853 -11.41793,19.70792 l -0.64079,3.75 23.22258,0 23.22258,0 -0.64079,-3.75 z M 23.617719,107.30812 C 10.181749,103.67549 2.265749,94.714971 0.23148902,80.83608 c -0.79502,-5.42413 0.43078,-7.74092 4.09568998,-7.74092 2.9422096,0 3.6383396,1.13643 5.1474696,8.40309 1.7611404,8.4801 5.2550304,13.221211 12.1119904,16.435601 4.96151,2.325849 6.93762,2.661309 15.67712,2.661309 8.32566,0 10.83716,-0.3857 15,-2.303609 C 63.840969,92.95766 67.956279,84.53055 64.703629,72.81783 62.306009,64.18406 56.258229,60.36511 36.660729,55.10975 21.463919,51.0345 11.541019,46.15083 7.7089286,40.86078 3.932359,35.64738 2.406719,29.93102 3.068229,23.47276 4.097079,13.42824 9.1905286,7.1841298 19.954669,2.77154 25.151029,0.64137 26.426239,0.58884 80.013765,0.29758 L 134.76377,0 l 0,18.90084 0,18.90085 -7.65088,0.64673 c -4.20798,0.35571 -9.60798,0.64674 -12,0.64674 l -4.34912,0 0,28.80887 c 0,23.16411 0.2753,29.185371 1.40504,30.730371 1.00169,1.369899 3.05338,2.070669 7.14703,2.441129 6.40808,0.57991 8.82008,2.61493 6.83842,5.76963 -1.6525,2.6307 -12.75259,2.9185 -17.31322,0.4489 -6.81909,-3.69257 -7.07727,-5.09461 -7.07727,-38.4333 l 0,-29.7656 -5.25,-0.16563 C 80.775625,38.433 17.763779,38.69419 17.763769,39.25595 c -3e-5,1.49472 9.55519,5.11124 20.78475,7.86674 20.5528,5.04324 28.355,9.48371 32.889796,18.71861 3.74874,7.63413 4.02225,19.43351 0.59993,25.88207 -3.008346,5.668541 -10.360956,11.87736 -17.127396,14.46302 -7.9249,3.02833 -22.33118,3.54474 -31.29313,1.12173 z m 143.096611,0.48936 c -13.18821,-3.74328 -21.93958,-15.03752 -24.28918,-31.34686 -2.77358,-19.25237 4.99736,-37.11181 19.17808,-44.07568 4.91671,-2.4145 6.8432,-2.77978 14.66054,-2.77978 7.81734,0 9.74383,0.36528 14.66054,2.77978 26.09671,12.81558 26.3645,60.53116 0.41098,73.22903 -6.49292,3.17669 -17.65382,4.17103 -24.62096,2.19351 z m 12.04944,-12.702319 0,-7.000001 -3,0 -3,0 0,7.000001 0,6.999999 3,0 3,0 0,-6.999999 z M 165.62372,91.95598 c 2.3742,-4.23685 2.82838,-5.76644 1.8264,-6.15094 -1.60876,-0.61734 -8.15332,10.725531 -7.13709,12.369821 0.85452,1.38264 1.42612,0.71328 5.31069,-6.218881 z m 26.45794,6.487961 c 0.95225,-0.95225 -5.55292,-12.348781 -7.04871,-12.348781 -1.78416,0 -1.66717,0.4169 1.98082,7.0589 3.24107,5.901111 3.83584,6.521931 5.06789,5.289881 z M 156.74419,83.44725 c 3.77386,-2.24807 5.767,-4.00467 5.19406,-4.57761 -1.21437,-1.21437 -12.17448,4.92623 -12.17448,6.82098 0,1.90706 0.0284,1.89793 6.98042,-2.24337 z m 45.01958,1.72832 c 0,-1.58309 -11.41692,-8.04669 -12.43333,-7.03904 -1.12048,1.11082 -1.29406,0.94148 4.93333,4.81254 5.08828,3.16296 7.5,3.87892 7.5,2.2265 z m 3.81642,-16.33041 0.31642,-2.75 -7.56642,0 c -7.26006,0 -7.56642,0.0945 -7.56642,2.33333 0,3.44139 0.77275,3.77716 7.95762,3.45763 6.31089,-0.28066 6.55358,-0.38826 6.8588,-3.04096 z m -43.81642,-0.75 0,-3 -7,0 -7,0 0,3 0,3 7,0 7,0 0,-3 z m 0.69563,-10.61493 c -1.15531,-1.02079 -11.01811,-6.38507 -11.73964,-6.38507 -2.44809,0 -0.44635,2.21092 4.79401,5.29496 3.68948,2.17132 5.99928,3.00394 6.44563,2.32347 0.38259,-0.58328 0.60759,-1.13829 0.5,-1.23336 z m 39.30437,-5.50195 c 0,-1.56519 -2.13668,-0.9517 -7.62827,2.19027 -5.15923,2.95181 -6.05115,3.91386 -4.79404,5.17097 0.73907,0.73906 12.42231,-6.18422 12.42231,-7.36124 z m -12.20452,-5.80784 c 2.14896,-3.90895 2.88532,-6.15452 2.1643,-6.60014 -1.30274,-0.80514 -0.89789,-1.28175 -4.79645,5.64659 -3.53878,6.28896 -3.70107,6.87827 -1.89415,6.87827 0.69804,0 2.73488,-2.66613 4.5263,-5.92472 z m -21.89766,2.67472 c -4.05553,-7.78212 -6.24106,-10.80676 -7.1511,-9.89672 -1.28737,1.28737 4.84722,12.14672 6.86185,12.14672 1.19669,0 1.24915,-0.40805 0.28925,-2.25 z m 10.60218,-5.25 c 0,-6.89299 -0.042,-7.00484 -2.75,-7.31642 l -2.75,-0.31642 0,7.63284 0,7.63284 2.75,-0.31642 c 2.70796,-0.31158 2.75,-0.42343 2.75,-7.31642 z M 405.83635,12.4603 c -1.13992,-1.44917 -2.07258,-3.6384802 -2.07258,-4.8651402 0,-1.22666 0.93266,-3.4159698 2.07258,-4.8651398 l 2.07258,-2.63486 108.42742,0 108.42742,0 0,7.4999998 0,7.5000002 -108.42742,0 -108.42742,0 -2.07258,-2.63486 z"
     id="path3049"
     inkscape:connector-curvature="0"
     inkscape:transform-center-x="62.466102"
     inkscape:transform-center-y="-142.77966" />
</svg>
